# xmcd CD database file
# Copyright (C) 1993-1998 Ti Kan
# 
# Track frame offsets:
#     150
#     20820
#     38527
#     56370
#     69500
#     85170
#     103045
#     115530
#     127593
#     140655
#     153675
#     164530
#     181523
#     193913
#     211200
#     228563
#     245963
#     262193
#     281530
#     294770
# 
# Disc length: 4098 seconds
# 
# Revision: 1
# Processed by: cddbd v1.4b41PL1 Copyright (c) Steve Scherf et al.
# Submitted via: DiscPlay 4.0.4
# 
DISCID=1e100014
DTITLE=Various Artist - Blooze and Boogie Vol. 2
DYEAR=1900
DGENRE=
TTITLE0=Tease Me Baby-John Lee Hooker/Canned Heat
TTITLE1=Going Fishing-David Lee
TTITLE2=Wigglewalk-Harvey Mitchell
TTITLE3=Madison Blues-Downchild Blues Band
TTITLE4=Hound Dog Howl-Whispering Smith
TTITLE5=High Time Woman-The Heaters
TTITLE6=Snap Your Fingers-Spencer Bohren
TTITLE7=Too Hot For The Devil-Lightnin' Charlie and Upsetters
TTITLE8=You Can't Have My Monkey-Valerie Wellington
TTITLE9=That's What You Do To Me-Billy Wirtz
TTITLE10=No More-Harvey Mitchell
TTITLE11=Operator-Eddie Burks
TTITLE12=Walk The Walk-The Heaters
TTITLE13=Too Young Too Die-Rent Party Band
TTITLE14=It's A Matter Of Time-Downchild Blues Band
TTITLE15=Open Up Your Back Door-Canned Heat
TTITLE16=Talkin' About You-Henry Gray
TTITLE17=House Rent Party-Rent Party Band
TTITLE18=Evalena-Carter Minor
TTITLE19=My Baby-Spencer Bohren
EXTD=
EXTT0=
EXTT1=
EXTT2=
EXTT3=
EXTT4=
EXTT5=
EXTT6=
EXTT7=
EXTT8=
EXTT9=
EXTT10=
EXTT11=
EXTT12=
EXTT13=
EXTT14=
EXTT15=
EXTT16=
EXTT17=
EXTT18=
EXTT19=
PLAYORDER=
